<svg width="30" height="30" viewBox="0 0 30 30" fill="none" xmlns="http://www.w3.org/2000/svg">
<mask id="mask0_221_51" style="mask-type:alpha" maskUnits="userSpaceOnUse" x="0" y="0" width="30" height="30">
<rect width="30" height="30" fill="#D9D9D9"/>
</mask>
<g mask="url(#mask0_221_51)">
<path d="M8.74951 26.25C8.06201 26.25 7.47368 26.0054 6.98451 25.5163C6.49451 25.0263 6.24951 24.4375 6.24951 23.75V7.5C5.89535 7.5 5.59826 7.38042 5.35826 7.14125C5.1191 6.90125 4.99951 6.60417 4.99951 6.25C4.99951 5.89583 5.1191 5.59875 5.35826 5.35875C5.59826 5.11958 5.89535 5 6.24951 5H11.2495C11.2495 4.64583 11.3695 4.34875 11.6095 4.10875C11.8487 3.86958 12.1453 3.75 12.4995 3.75H17.4995C17.8537 3.75 18.1508 3.86958 18.3908 4.10875C18.6299 4.34875 18.7495 4.64583 18.7495 5H23.7495C24.1037 5 24.4003 5.11958 24.6395 5.35875C24.8795 5.59875 24.9995 5.89583 24.9995 6.25C24.9995 6.60417 24.8795 6.90125 24.6395 7.14125C24.4003 7.38042 24.1037 7.5 23.7495 7.5V23.75C23.7495 24.4375 23.5049 25.0263 23.0158 25.5163C22.5258 26.0054 21.937 26.25 21.2495 26.25H8.74951ZM11.2495 20C11.2495 20.3542 11.3695 20.6508 11.6095 20.89C11.8487 21.13 12.1453 21.25 12.4995 21.25C12.8537 21.25 13.1508 21.13 13.3908 20.89C13.6299 20.6508 13.7495 20.3542 13.7495 20V11.25C13.7495 10.8958 13.6299 10.5987 13.3908 10.3587C13.1508 10.1196 12.8537 10 12.4995 10C12.1453 10 11.8487 10.1196 11.6095 10.3587C11.3695 10.5987 11.2495 10.8958 11.2495 11.25V20ZM16.2495 20C16.2495 20.3542 16.3695 20.6508 16.6095 20.89C16.8487 21.13 17.1453 21.25 17.4995 21.25C17.8537 21.25 18.1508 21.13 18.3908 20.89C18.6299 20.6508 18.7495 20.3542 18.7495 20V11.25C18.7495 10.8958 18.6299 10.5987 18.3908 10.3587C18.1508 10.1196 17.8537 10 17.4995 10C17.1453 10 16.8487 10.1196 16.6095 10.3587C16.3695 10.5987 16.2495 10.8958 16.2495 11.25V20Z" fill="#82C6DC"/>
</g>
</svg>
