<svg width="30" height="30" viewBox="0 0 30 30" fill="none" xmlns="http://www.w3.org/2000/svg">
<mask id="mask0_220_15" style="mask-type:alpha" maskUnits="userSpaceOnUse" x="0" y="0" width="30" height="30">
<rect width="30" height="30" fill="#82C6DC"/>
</mask>
<g mask="url(#mask0_220_15)">
<path d="M7.5 27.5C6.8125 27.5 6.22417 27.2554 5.735 26.7663C5.245 26.2763 5 25.6875 5 25V5C5 4.3125 5.245 3.72375 5.735 3.23375C6.22417 2.74458 6.8125 2.5 7.5 2.5H16.4688C16.8021 2.5 17.12 2.5625 17.4225 2.6875C17.7242 2.8125 17.9896 2.98958 18.2188 3.21875L24.2812 9.28125C24.5104 9.51042 24.6875 9.77583 24.8125 10.0775C24.9375 10.38 25 10.6979 25 11.0312V25C25 25.6875 24.7554 26.2763 24.2663 26.7663C23.7763 27.2554 23.1875 27.5 22.5 27.5H7.5ZM16.25 10C16.25 10.3542 16.37 10.6508 16.61 10.89C16.8492 11.13 17.1458 11.25 17.5 11.25H22.5L16.25 5V10ZM13.75 18.75V21.25C13.75 21.6042 13.87 21.9008 14.11 22.14C14.3492 22.38 14.6458 22.5 15 22.5C15.3542 22.5 15.6513 22.38 15.8913 22.14C16.1304 21.9008 16.25 21.6042 16.25 21.25V18.75H18.75C19.1042 18.75 19.4013 18.63 19.6413 18.39C19.8804 18.1508 20 17.8542 20 17.5C20 17.1458 19.8804 16.8487 19.6413 16.6087C19.4013 16.3696 19.1042 16.25 18.75 16.25H16.25V13.75C16.25 13.3958 16.1304 13.0987 15.8913 12.8587C15.6513 12.6196 15.3542 12.5 15 12.5C14.6458 12.5 14.3492 12.6196 14.11 12.8587C13.87 13.0987 13.75 13.3958 13.75 13.75V16.25H11.25C10.8958 16.25 10.5992 16.3696 10.36 16.6087C10.12 16.8487 10 17.1458 10 17.5C10 17.8542 10.12 18.1508 10.36 18.39C10.5992 18.63 10.8958 18.75 11.25 18.75H13.75Z" fill="#82C6DC"/>
</g>
</svg>
