<svg width="30" height="30" viewBox="0 0 30 30" fill="none" xmlns="http://www.w3.org/2000/svg">
<mask id="mask0_221_33" style="mask-type:alpha" maskUnits="userSpaceOnUse" x="0" y="0" width="30" height="30">
<rect width="30" height="30" fill="#D9D9D9"/>
</mask>
<g mask="url(#mask0_221_33)">
<path d="M7.49951 27.4998C6.81201 27.4998 6.22368 27.2553 5.73451 26.7661C5.24451 26.2761 4.99951 25.6873 4.99951 24.9998V4.99985C4.99951 4.31235 5.24451 3.7236 5.73451 3.2336C6.22368 2.74443 6.81201 2.49985 7.49951 2.49985H16.4683C16.8016 2.49985 17.1195 2.56235 17.422 2.68735C17.7237 2.81235 17.9891 2.98943 18.2183 3.2186L24.2808 9.2811C24.5099 9.51026 24.687 9.77568 24.812 10.0773C24.937 10.3798 24.9995 10.6978 24.9995 11.0311V24.9998C24.9995 25.6873 24.7549 26.2761 24.2658 26.7661C23.7758 27.2553 23.187 27.4998 22.4995 27.4998H7.49951ZM16.2495 9.99985C16.2495 10.354 16.3695 10.6507 16.6095 10.8898C16.8487 11.1298 17.1453 11.2498 17.4995 11.2498H22.4995L16.2495 4.99985V9.99985Z" fill="#82C6DC"/>
</g>
</svg>
