<svg width="16" height="16" viewBox="0 0 16 16" fill="none" xmlns="http://www.w3.org/2000/svg">
<path d="M3.8954 3.04542C6.16234 0.77848 9.83778 0.77848 12.1047 3.04542C14.3716 5.31236 14.3716 8.98783 12.1047 11.2548L11.3134 12.0374C10.7302 12.6098 9.97338 13.3458 9.04284 14.2454C8.46131 14.8077 7.53878 14.8076 6.95738 14.2453L4.62998 11.9814C4.33747 11.6942 4.09262 11.452 3.8954 11.2548C1.62846 8.98783 1.62846 5.31236 3.8954 3.04542ZM11.3976 3.75253C9.52118 1.87611 6.47892 1.87611 4.6025 3.75253C2.72609 5.62894 2.72609 8.67123 4.6025 10.5476L5.59389 11.526C6.13982 12.0602 6.82611 12.7272 7.65258 13.5265C7.84638 13.7139 8.15391 13.714 8.34771 13.5266L10.611 11.3256C10.9236 11.0187 11.1858 10.7594 11.3976 10.5476C13.274 8.67123 13.274 5.62894 11.3976 3.75253ZM8.00004 5.33252C9.10518 5.33252 10.0011 6.22841 10.0011 7.33356C10.0011 8.43869 9.10518 9.33456 8.00004 9.33456C6.89491 9.33456 5.99902 8.43869 5.99902 7.33356C5.99902 6.22841 6.89491 5.33252 8.00004 5.33252ZM8.00004 6.33252C7.44718 6.33252 6.99904 6.78069 6.99904 7.33356C6.99904 7.88643 7.44718 8.33456 8.00004 8.33456C8.55291 8.33456 9.00111 7.88643 9.00111 7.33356C9.00111 6.78069 8.55291 6.33252 8.00004 6.33252Z" fill="#0E2229"/>
</svg>
