<svg width="30" height="30" viewBox="0 0 30 30" fill="none" xmlns="http://www.w3.org/2000/svg">
<mask id="mask0_221_87" style="mask-type:alpha" maskUnits="userSpaceOnUse" x="0" y="0" width="30" height="30">
<rect width="30" height="30" fill="#D9D9D9"/>
</mask>
<g mask="url(#mask0_221_87)">
<path d="M18.7188 21.2814C18.3854 20.948 18.2242 20.5418 18.235 20.0626C18.245 19.5835 18.4167 19.1772 18.75 18.8439L20.9688 16.6251H12.625C12.1667 16.6251 11.7762 16.4635 11.4538 16.1401C11.1304 15.8176 10.9688 15.4272 10.9688 14.9689C10.9688 14.5105 11.1304 14.1197 11.4538 13.7964C11.7762 13.4739 12.1667 13.3126 12.625 13.3126H20.9688L18.6875 11.0314C18.3542 10.698 18.1925 10.3072 18.2025 9.85887C18.2133 9.41137 18.3854 9.02096 18.7188 8.68762C19.0521 8.35429 19.4479 8.18762 19.9062 8.18762C20.3646 8.18762 20.7604 8.35429 21.0938 8.68762L26.25 13.8439C26.4167 14.0105 26.5367 14.1926 26.61 14.3901C26.6825 14.5885 26.7188 14.7918 26.7188 15.0001C26.7188 15.2085 26.6825 15.4118 26.61 15.6101C26.5367 15.8076 26.4167 15.9897 26.25 16.1564L21.0938 21.3126C20.7604 21.646 20.3646 21.8076 19.9062 21.7976C19.4479 21.7868 19.0521 21.6147 18.7188 21.2814ZM5.90625 26.8751C4.98958 26.8751 4.20833 26.5522 3.5625 25.9064C2.91667 25.2605 2.59375 24.4793 2.59375 23.5626V6.43762C2.59375 5.52096 2.91667 4.73971 3.5625 4.09387C4.20833 3.44804 4.98958 3.12512 5.90625 3.12512H13.1875C13.6458 3.12512 14.0367 3.28637 14.36 3.60887C14.6825 3.93221 14.8438 4.32304 14.8438 4.78137C14.8438 5.23971 14.6825 5.63012 14.36 5.95262C14.0367 6.27596 13.6458 6.43762 13.1875 6.43762H5.90625V23.5626H13.1875C13.6458 23.5626 14.0367 23.7243 14.36 24.0476C14.6825 24.3701 14.8438 24.7605 14.8438 25.2189C14.8438 25.6772 14.6825 26.068 14.36 26.3914C14.0367 26.7139 13.6458 26.8751 13.1875 26.8751H5.90625Z" fill="#82C6DC"/>
</g>
</svg>
