<svg width="16" height="16" viewBox="0 0 16 16" fill="none" xmlns="http://www.w3.org/2000/svg">
<path d="M3.50004 2.6665H12.5C13.6554 2.6665 14.5995 3.5708 14.6633 4.71022L14.6667 4.83317V11.1665C14.6667 12.3218 13.7624 13.266 12.623 13.3298L12.5 13.3332H3.50004C2.34469 13.3332 1.40054 12.4288 1.3368 11.2894L1.33337 11.1665V4.83317C1.33337 3.67782 2.23767 2.73367 3.37709 2.66993L3.50004 2.6665H12.5H3.50004ZM13.6667 6.2485L8.23291 9.10897C8.10797 9.1747 7.96211 9.1841 7.83124 9.13717L7.76717 9.10897L2.33337 6.24917V11.1665C2.33337 11.7786 2.80478 12.2806 3.40435 12.3293L3.50004 12.3332H12.5C13.1122 12.3332 13.6142 11.8618 13.6628 11.2622L13.6667 11.1665V6.2485ZM12.5 3.6665H3.50004C2.88793 3.6665 2.38591 4.13791 2.33724 4.73748L2.33337 4.83317V5.11917L8.00004 8.1015L13.6667 5.1185V4.83317C13.6667 4.22106 13.1953 3.71904 12.5957 3.67037L12.5 3.6665Z" fill="#0E2229"/>
</svg>
