<svg width="30" height="30" viewBox="0 0 30 30" fill="none" xmlns="http://www.w3.org/2000/svg">
<mask id="mask0_221_69" style="mask-type:alpha" maskUnits="userSpaceOnUse" x="0" y="0" width="30" height="30">
<rect width="30" height="30" fill="#D9D9D9"/>
</mask>
<g mask="url(#mask0_221_69)">
<path d="M5 23.75C4.64583 23.75 4.34917 23.63 4.11 23.39C3.87 23.1508 3.75 22.8542 3.75 22.5C3.75 22.1458 3.87 21.8492 4.11 21.61C4.34917 21.37 4.64583 21.25 5 21.25H10C10.3542 21.25 10.6513 21.37 10.8913 21.61C11.1304 21.8492 11.25 22.1458 11.25 22.5C11.25 22.8542 11.1304 23.1508 10.8913 23.39C10.6513 23.63 10.3542 23.75 10 23.75H5ZM5 8.75C4.64583 8.75 4.34917 8.63042 4.11 8.39125C3.87 8.15125 3.75 7.85417 3.75 7.5C3.75 7.14583 3.87 6.84875 4.11 6.60875C4.34917 6.36958 4.64583 6.25 5 6.25H15C15.3542 6.25 15.6513 6.36958 15.8913 6.60875C16.1304 6.84875 16.25 7.14583 16.25 7.5C16.25 7.85417 16.1304 8.15125 15.8913 8.39125C15.6513 8.63042 15.3542 8.75 15 8.75H5ZM15 26.25C14.6458 26.25 14.3492 26.13 14.11 25.89C13.87 25.6508 13.75 25.3542 13.75 25V20C13.75 19.6458 13.87 19.3487 14.11 19.1087C14.3492 18.8696 14.6458 18.75 15 18.75C15.3542 18.75 15.6513 18.8696 15.8913 19.1087C16.1304 19.3487 16.25 19.6458 16.25 20V21.25H25C25.3542 21.25 25.6508 21.37 25.89 21.61C26.13 21.8492 26.25 22.1458 26.25 22.5C26.25 22.8542 26.13 23.1508 25.89 23.39C25.6508 23.63 25.3542 23.75 25 23.75H16.25V25C16.25 25.3542 16.1304 25.6508 15.8913 25.89C15.6513 26.13 15.3542 26.25 15 26.25ZM10 18.75C9.64583 18.75 9.34875 18.63 9.10875 18.39C8.86958 18.1508 8.75 17.8542 8.75 17.5V16.25H5C4.64583 16.25 4.34917 16.13 4.11 15.89C3.87 15.6508 3.75 15.3542 3.75 15C3.75 14.6458 3.87 14.3487 4.11 14.1087C4.34917 13.8696 4.64583 13.75 5 13.75H8.75V12.5C8.75 12.1458 8.86958 11.8487 9.10875 11.6087C9.34875 11.3696 9.64583 11.25 10 11.25C10.3542 11.25 10.6513 11.3696 10.8913 11.6087C11.1304 11.8487 11.25 12.1458 11.25 12.5V17.5C11.25 17.8542 11.1304 18.1508 10.8913 18.39C10.6513 18.63 10.3542 18.75 10 18.75ZM15 16.25C14.6458 16.25 14.3492 16.13 14.11 15.89C13.87 15.6508 13.75 15.3542 13.75 15C13.75 14.6458 13.87 14.3487 14.11 14.1087C14.3492 13.8696 14.6458 13.75 15 13.75H25C25.3542 13.75 25.6508 13.8696 25.89 14.1087C26.13 14.3487 26.25 14.6458 26.25 15C26.25 15.3542 26.13 15.6508 25.89 15.89C25.6508 16.13 25.3542 16.25 25 16.25H15ZM20 11.25C19.6458 11.25 19.3492 11.13 19.11 10.89C18.87 10.6508 18.75 10.3542 18.75 10V5C18.75 4.64583 18.87 4.34875 19.11 4.10875C19.3492 3.86958 19.6458 3.75 20 3.75C20.3542 3.75 20.6508 3.86958 20.89 4.10875C21.13 4.34875 21.25 4.64583 21.25 5V6.25H25C25.3542 6.25 25.6508 6.36958 25.89 6.60875C26.13 6.84875 26.25 7.14583 26.25 7.5C26.25 7.85417 26.13 8.15125 25.89 8.39125C25.6508 8.63042 25.3542 8.75 25 8.75H21.25V10C21.25 10.3542 21.13 10.6508 20.89 10.89C20.6508 11.13 20.3542 11.25 20 11.25Z" fill="#82C6DC"/>
</g>
</svg>
