<svg width="16" height="16" viewBox="0 0 16 16" fill="none" xmlns="http://www.w3.org/2000/svg">
<path d="M4.70431 1.61213L5.48231 1.37762C6.36397 1.11186 7.306 1.54135 7.68353 2.38124L8.28467 3.71838C8.60647 4.43427 8.43687 5.27561 7.86287 5.81091L6.86667 6.7399C6.83753 6.76704 6.81907 6.8037 6.81467 6.8433C6.78513 7.10804 6.9646 7.62364 7.37807 8.33984C7.6788 8.8607 7.95093 9.2259 8.1826 9.43137C8.344 9.5745 8.43287 9.60544 8.47073 9.59417L9.81093 9.18444C10.5613 8.95504 11.3745 9.22857 11.8337 9.8649L12.6875 11.0482C13.2249 11.793 13.1283 12.8206 12.4614 13.4521L11.8705 14.0117C11.2329 14.6156 10.3251 14.8406 9.47933 14.6045C7.64327 14.092 5.99707 12.5426 4.52248 9.98857C3.04585 7.43097 2.52772 5.22798 3.00535 3.38012C3.22393 2.53447 3.86802 1.86421 4.70431 1.61213ZM4.99291 2.56958C4.49113 2.72082 4.10468 3.12298 3.97353 3.63038C3.57177 5.18472 4.03101 7.1373 5.38851 9.48857C6.7442 11.8366 8.20347 13.2102 9.7482 13.6413C10.2557 13.783 10.8003 13.648 11.1829 13.2856L11.7737 12.726C12.0769 12.439 12.1208 11.9719 11.8765 11.6334L11.0227 10.45C10.814 10.1608 10.4444 10.0364 10.1033 10.1408L8.75973 10.5515C7.97993 10.784 7.27213 10.1563 6.51207 8.83984C5.99987 7.9527 5.76114 7.2669 5.82085 6.7323C5.85179 6.45532 5.98083 6.19858 6.18465 6.00852L7.18087 5.07956C7.4418 4.83624 7.51887 4.45381 7.3726 4.12841L6.77147 2.79126C6.59985 2.4095 6.17166 2.21427 5.77091 2.33507L4.99291 2.56958Z" fill="#0E2229"/>
</svg>
